<?xml version="1.0" encoding="UTF-8"?> <svg xmlns="http://www.w3.org/2000/svg" width="100" height="111" viewBox="0 0 100 111" fill="none"><path fill-rule="evenodd" clip-rule="evenodd" d="M50 56.4101C42.2114 56.4101 35.8975 62.724 35.8975 70.5126C35.8975 78.3012 42.2114 84.6151 50 84.6151C57.7886 84.6151 64.1025 78.3012 64.1025 70.5126C64.1025 62.724 57.7886 56.4101 50 56.4101ZM43.5898 70.5126C43.5898 66.9723 46.4597 64.1024 50 64.1024C53.5403 64.1024 56.4102 66.9723 56.4102 70.5126C56.4102 74.0529 53.5403 76.9228 50 76.9228C46.4597 76.9228 43.5898 74.0529 43.5898 70.5126Z" fill="#EB1940"></path><path fill-rule="evenodd" clip-rule="evenodd" d="M50 0C33.7147 0 20.5129 13.2018 20.5129 29.4871V32.1681L20.3752 32.2123C11.3983 35.1291 4.36017 42.1672 1.44337 51.1442C-0.00213353 55.593 -0.00129354 60.9325 8.34768e-05 69.6826V71.3425C-0.00129354 80.0927 -0.00213353 85.4322 1.44337 89.881C4.36017 98.858 11.3983 105.896 20.3752 108.813C24.824 110.258 30.1635 110.258 38.9136 110.256H61.0864C69.8365 110.258 75.176 110.258 79.6248 108.813C88.6018 105.896 95.6398 98.858 98.5566 89.881C100.002 85.4322 100.001 80.0927 99.9999 71.3427V69.6825C100.001 60.9325 100.002 55.593 98.5566 51.1442C95.6398 42.1672 88.6018 35.1291 79.6248 32.2123L79.4871 32.1681V29.4871C79.4871 13.2018 66.2853 0 50 0ZM39.313 30.7691C34.8043 30.769 31.2057 30.7688 28.2052 30.9387V29.4871C28.2052 17.4501 37.9631 7.69228 50 7.69228C62.0369 7.69228 71.7948 17.4501 71.7948 29.4871V30.9387C68.7943 30.7688 65.1957 30.769 60.687 30.7691H39.313ZM24.998 38.9911C28.0626 38.4748 32.1957 38.4614 39.7436 38.4614H60.2564C67.8043 38.4614 71.9374 38.4748 75.002 38.9911C75.8494 39.1339 76.5802 39.3112 77.2477 39.5281C83.8829 41.684 89.0849 46.8861 91.2408 53.5213C92.2601 56.6582 92.3076 60.6682 92.3076 70.5126C92.3076 80.357 92.2601 84.367 91.2408 87.5039C89.0849 94.1391 83.8829 99.3412 77.2477 101.497C74.1108 102.516 70.1007 102.564 60.2564 102.564H39.7436C29.8993 102.564 25.8893 102.516 22.7523 101.497C16.1171 99.3412 10.9151 94.1391 8.75916 87.5039C7.7399 84.367 7.69245 80.3569 7.69245 70.5126C7.69245 60.6682 7.7399 56.6582 8.75916 53.5213C10.9151 46.8861 16.1171 41.684 22.7523 39.5281C23.4198 39.3112 24.1506 39.1339 24.998 38.9911Z" fill="#EB1940"></path></svg> 