<?xml version="1.0" encoding="UTF-8"?> <svg xmlns="http://www.w3.org/2000/svg" width="100" height="100" viewBox="0 0 100 100" fill="none"><path fill-rule="evenodd" clip-rule="evenodd" d="M41.6667 5.20837C30.736 5.20837 21.875 14.0694 21.875 25C21.875 35.9307 30.736 44.7917 41.6667 44.7917C52.5973 44.7917 61.4583 35.9307 61.4583 25C61.4583 14.0694 52.5973 5.20837 41.6667 5.20837ZM28.125 25C28.125 17.5212 34.1878 11.4584 41.6667 11.4584C49.1455 11.4584 55.2083 17.5212 55.2083 25C55.2083 32.4789 49.1455 38.5417 41.6667 38.5417C34.1878 38.5417 28.125 32.4789 28.125 25Z" fill="#EB1940"></path><path d="M93.9949 56.2512C95.1461 54.9653 95.037 52.9897 93.7511 51.8385C92.4653 50.6873 90.4897 50.7964 89.3384 52.0822L75.3002 67.7622C72.4556 70.9394 70.54 73.0679 68.9022 74.4445C67.3419 75.7558 66.4255 76.0417 65.625 76.0417C64.8245 76.0417 63.9081 75.7558 62.3478 74.4445C60.71 73.0678 58.7944 70.9394 55.9498 67.7621L52.3282 63.7171C51.177 62.4312 49.2014 62.3221 47.9155 63.4733C46.6297 64.6245 46.5206 66.6002 47.6718 67.886L51.4479 72.1038C54.0973 75.0632 56.3073 77.5318 58.3265 79.2289C60.4625 81.0242 62.7664 82.2917 65.625 82.2917C68.4836 82.2917 70.7875 81.0242 72.9235 79.2289C74.9427 77.5318 77.1526 75.0633 79.8019 72.1039L93.9949 56.2512Z" fill="#EB1940"></path><path d="M29.1667 51.0417C18.236 51.0417 9.375 59.9027 9.375 70.8334C9.375 81.764 18.236 90.625 29.1667 90.625H54.1667C55.8926 90.625 57.2917 89.2259 57.2917 87.5C57.2917 85.7742 55.8926 84.375 54.1667 84.375H29.1667C21.6878 84.375 15.625 78.3122 15.625 70.8334C15.625 63.3545 21.6878 57.2917 29.1667 57.2917H54.1667C55.8926 57.2917 57.2917 55.8926 57.2917 54.1667C57.2917 52.4408 55.8926 51.0417 54.1667 51.0417H29.1667Z" fill="#EB1940"></path></svg> 