<?xml version="1.0" encoding="UTF-8"?> <svg xmlns="http://www.w3.org/2000/svg" width="100" height="100" viewBox="0 0 100 100" fill="none"><path fill-rule="evenodd" clip-rule="evenodd" d="M58.4392 36.4922C55.8039 28.1138 44.1961 28.1138 41.5607 36.4922C41.185 37.6867 40.1497 38.4013 39.0835 38.4013C30.2957 38.4013 27.1162 49.7085 33.8343 54.7505C34.76 55.4452 35.1944 56.732 34.8139 57.9417C33.5227 62.0466 35.1788 65.8866 38.004 68.007C40.8438 70.1383 45.0153 70.6241 48.5024 68.007C49.4025 67.3315 50.5975 67.3315 51.4976 68.007C54.9846 70.6241 59.1562 70.1383 61.996 68.007C64.8211 65.8866 66.4772 62.0466 65.186 57.9417C64.8055 56.732 65.24 55.4452 66.1657 54.7505C72.8837 49.7085 69.7042 38.4013 60.9165 38.4013C59.8502 38.4013 58.815 37.6867 58.4392 36.4922ZM47.5227 38.3675C48.3234 35.822 51.6765 35.822 52.4772 38.3675C53.6381 42.0583 57.01 44.6513 60.9165 44.6513C62.1251 44.6513 63.027 45.3947 63.3937 46.5605C63.7627 47.7334 63.4613 48.9657 62.4141 49.7517C59.3168 52.0762 58.0678 56.1413 59.224 59.817C59.6508 61.174 59.14 62.336 58.2443 63.0082C57.3633 63.6694 56.2599 63.7668 55.2492 63.0082C52.1262 60.6644 47.8737 60.6644 44.7508 63.0082C43.74 63.7668 42.6367 63.6694 41.7556 63.0082C40.8599 62.336 40.3491 61.174 40.776 59.817C41.9321 56.1413 40.6832 52.0762 37.5859 49.7517C36.5386 48.9657 36.2373 47.7334 36.6062 46.5605C36.9729 45.3947 37.8749 44.6513 39.0835 44.6513C42.9899 44.6513 46.3618 42.0583 47.5227 38.3675Z" fill="#EB1940"></path><path fill-rule="evenodd" clip-rule="evenodd" d="M39.8453 5.20837C33.4212 5.20837 28.2134 10.4162 28.2134 16.8403C28.2134 19.8127 25.8038 22.2223 22.8314 22.2223H21.5445C14.9776 22.2223 9.12794 27.3031 9.48422 34.3604C9.90724 42.7396 11.7683 55.7993 18.5564 68.17C20.4576 71.6348 22.9968 75.0384 25.7416 78.2096L25.9483 78.4484C29.8969 83.0109 33.1892 86.8151 36.7287 89.4081C40.5357 92.1971 44.599 93.5864 50.0002 93.5864C55.4014 93.5864 59.4647 92.1971 63.2717 89.4081C66.8112 86.8151 70.1035 83.0109 74.0521 78.4484L74.2588 78.2096C77.0036 75.0384 79.5428 71.6348 81.444 68.17C88.4578 55.388 90.2067 40.9445 90.5517 31.9401C90.8208 24.9167 85.0128 19.7917 78.4093 19.7917H75.9537C73.6525 19.7917 71.787 17.9262 71.787 15.625C71.787 9.87207 67.1233 5.20837 61.3704 5.20837H39.8453ZM34.4634 16.8403C34.4634 13.868 36.873 11.4584 39.8453 11.4584H61.3704C63.6715 11.4584 65.537 13.3239 65.537 15.625C65.537 21.378 70.2007 26.0417 75.9537 26.0417H78.4093C81.8995 26.0417 84.4236 28.638 84.3063 31.7008C83.9767 40.3039 82.2992 53.6194 75.9647 65.1634C74.3441 68.1167 72.1001 71.1536 69.5331 74.1194C65.3242 78.9821 62.4822 82.2387 59.5781 84.3663C56.88 86.3429 54.1202 87.3364 50.0002 87.3364C45.8802 87.3364 43.1204 86.3429 40.4223 84.3663C37.5182 82.2387 34.6762 78.9821 30.4673 74.1194C27.9003 71.1536 25.6563 68.1167 24.0357 65.1634C17.8754 53.9367 16.124 41.9233 15.7263 34.0453C15.575 31.0479 18.0439 28.4723 21.5445 28.4723H22.8314C29.2556 28.4723 34.4634 23.2645 34.4634 16.8403Z" fill="#EB1940"></path></svg> 